<svg width="213" height="50" viewBox="0 0 213 50" fill="none" xmlns="http://www.w3.org/2000/svg">
<path d="M23.1077 49.9991C19.1872 49.9991 15.6963 49.4399 12.6398 48.3183C9.58175 47.1983 7.16499 45.6802 5.3927 43.7671C3.61725 41.8541 2.27618 39.7404 1.36634 37.4292C0.4565 35.1165 0 32.7027 0 30.1799C0 24.5781 2.00765 19.91 6.02295 16.174C10.0367 12.4395 15.2414 10.5723 21.6371 10.5723C27.7533 10.5723 32.7937 12.4269 36.7632 16.1392C40.7296 19.85 42.7151 24.3917 42.7151 29.7597C42.7151 30.9271 42.6203 32.0266 42.4339 33.0518H15.4057C15.8259 34.7785 17.0042 36.1323 18.9424 37.1133C20.8789 38.0911 23.1788 38.584 25.8388 38.584C28.0803 38.584 30.0279 38.3265 31.6864 37.8131C33.3419 37.2997 35.1979 36.4609 37.2529 35.2919L38.5134 46.9866C34.7761 48.996 29.6425 49.9991 23.1077 49.9991ZM14.9839 28.0804H28.1482C28.1008 26.3522 27.4705 24.9541 26.2574 23.8767C25.0427 22.8041 23.4789 22.267 21.5661 22.267C19.7464 22.267 18.2395 22.7915 17.05 23.842C15.8606 24.8941 15.1719 26.3064 14.9839 28.0804Z" fill="white"/>
<path d="M62.4599 1.40039H46.7051V49.0197H62.4599V1.40039Z" fill="white"/>
<path d="M89.5577 49.9991C85.6372 49.9991 82.1463 49.4399 79.0898 48.3183C76.0317 47.1983 73.6149 45.6802 71.8427 43.7671C70.0672 41.8541 68.7261 39.7404 67.8163 37.4292C66.9065 35.1165 66.45 32.7027 66.45 30.1799C66.45 24.5781 68.4576 19.91 72.4729 16.174C76.4866 12.4395 81.6914 10.5723 88.0871 10.5723C94.2032 10.5723 99.2437 12.4269 103.213 16.1392C107.18 19.85 109.165 24.3917 109.165 29.7597C109.165 30.9271 109.069 32.0266 108.884 33.0518H81.8556C82.2758 34.7785 83.4542 36.1323 85.3923 37.1133C87.3289 38.0911 89.6288 38.584 92.2888 38.584C94.5302 38.584 96.4778 38.3265 98.1364 37.8131C99.7918 37.2997 101.648 36.4609 103.703 35.2919L104.963 46.9866C101.228 48.996 96.094 49.9991 89.5577 49.9991ZM81.4355 28.0804H94.5997C94.5523 26.3522 93.9221 24.9541 92.709 23.8767C91.4943 22.8041 89.9305 22.267 88.0176 22.267C86.1979 22.267 84.691 22.7915 83.5016 23.842C82.3106 24.8941 81.6219 26.3064 81.4355 28.0804Z" fill="white"/>
<path d="M147.467 50C144.432 50 140.395 49.545 135.353 48.6351C130.311 47.7236 126.74 47.2702 124.639 47.2702C120.72 47.2702 117.193 47.8532 114.065 49.019H113.157V0H147.817C151.926 0 155.262 1.01577 157.83 3.04572C160.397 5.07725 161.681 7.79754 161.681 11.205C161.681 14.3803 160.562 16.9473 158.32 18.9078C156.08 20.8698 152.999 21.9898 149.076 22.2694V22.9693C153.93 23.2046 157.688 24.4526 160.351 26.7164C163.011 28.9817 164.342 31.98 164.342 35.7161C164.342 39.964 162.754 43.4078 159.579 46.0428C156.407 48.6825 152.368 50 147.467 50ZM131.644 19.467H138.924C140.466 19.467 141.701 19.1163 142.636 18.4165C143.57 17.7167 144.038 16.8052 144.038 15.6851C144.038 14.5193 143.583 13.5967 142.673 12.919C141.761 12.2429 140.512 11.9033 138.926 11.9033H131.646L131.644 19.467ZM139.626 34.9436C141.586 34.9436 143.09 34.5123 144.14 33.6482C145.191 32.7841 145.717 31.6767 145.717 30.3229C145.717 29.0607 145.191 28.0465 144.14 27.2772C143.09 26.5063 141.657 26.1208 139.834 26.1208H131.643V33.9642C131.685 33.9642 132.728 34.1285 134.757 34.4555C136.79 34.7809 138.409 34.9436 139.626 34.9436Z" fill="white"/>
<path d="M168.543 49.019V0H207.688V14.8463H187.029V20.448H210.277V28.0813H187.029V34.1048H212.729V49.019H168.543Z" fill="white"/>
</svg>
