<svg width="267" height="50" viewBox="0 0 267 50" fill="none" xmlns="http://www.w3.org/2000/svg">
<path d="M41.6062 13.908C43.1296 12.7932 43.5648 8.55695 39.6476 8.33398H39.43C37.2538 8.33398 35.7304 11.4555 36.8185 13.2391C37.9066 15.0228 40.3005 14.7999 41.6062 13.908Z" fill="white"/>
<path d="M233.062 42.3469C232.829 37.9511 233.991 21.7561 233.758 17.823C233.758 15.7408 232.133 14.584 230.507 14.584C229.114 14.584 227.721 15.7408 227.721 18.0544C227.721 22.2188 227.721 28.9282 227.488 33.5553C227.256 38.1825 225.863 43.2724 220.289 43.2724C215.645 43.5037 214.716 41.1902 214.716 33.7867C214.716 27.7714 214.716 23.3756 214.716 17.823C214.716 14.3526 209.375 14.1213 209.375 18.5171C209.607 22.9129 209.375 31.0104 209.607 37.4884C209.839 43.9664 211.697 48.1309 219.361 47.8995C224.469 47.6682 226.559 46.5114 227.721 44.8919C227.721 46.0487 229.114 48.1309 231.668 47.8995C238.403 47.4368 237.242 42.1156 233.062 42.3469Z" fill="white"/>
<path d="M24.9644 42.757C24.9644 43.9158 24.0356 43.9158 22.8746 43.9158C19.8561 43.9158 14.0513 43.9158 13.1225 43.9158C10.104 43.9158 10.3362 42.757 10.3362 42.757V7.29841C10.5684 6.37139 11.265 6.13964 11.4972 6.13964C14.7479 6.37139 15.6767 1.04102 11.7294 1.04102C7.78208 1.04102 3.6026 1.04102 2.44164 1.04102C2.44164 1.04102 2.44164 1.04102 2.20944 1.04102C-1.04126 1.04102 -0.344683 5.44437 1.97725 5.67612C3.6026 5.90788 4.06699 6.37139 4.53138 7.29841V41.83C4.53138 43.684 3.13822 43.9158 2.44164 44.1475C0.351898 44.3793 -0.11249 49.9414 3.13822 49.9414C3.37041 49.9414 4.29918 49.9414 4.29918 49.9414C4.29918 49.9414 23.339 50.1732 26.1253 49.7097C28.6795 49.2461 29.6082 46.9286 29.8404 46.0016C30.0726 45.0745 30.537 43.4523 29.8404 41.83C29.1439 40.6712 24.9644 40.6712 24.9644 42.757Z" fill="white"/>
<path d="M45.8913 44.6447C44.2997 44.4062 43.1629 43.929 42.9356 42.7362C42.9356 37.4876 42.9356 27.9447 42.9356 26.0362C43.1629 18.879 41.3441 19.8333 38.6157 19.8333H37.4789C34.2959 19.8333 35.4327 25.3205 37.4789 25.559C37.9337 25.559 38.3884 25.559 38.6157 25.7976V42.9747C38.6157 43.6905 37.7063 44.1676 37.0242 43.929C33.8412 43.929 33.1591 49.6547 37.0242 49.8933C40.8893 50.1319 44.5271 49.8933 45.6639 49.8933C49.0743 50.1319 48.1648 44.8833 45.8913 44.6447Z" fill="white"/>
<path d="M104.41 43.2984C102.81 43.2984 102.81 41.2145 102.81 41.2145C102.581 30.5636 102.81 7.64089 102.81 5.09393C102.81 1.85234 102.581 0 99.152 0H97.0944H96.8658C93.6652 0 93.8938 4.63084 96.18 4.86239C96.6372 4.86239 97.7803 4.86239 97.7803 6.0201C97.7803 6.48318 98.2375 35.6575 98.2375 35.6575C98.2375 35.6575 98.2375 40.7514 98.0089 40.983C97.3231 43.0669 97.5517 43.0669 95.4941 43.2984C93.4366 43.7615 92.7507 48.6239 95.9514 48.8554C97.7803 49.087 100.524 48.8554 104.639 48.8554C108.754 48.8554 107.611 43.0669 104.41 43.2984Z" fill="white"/>
<path d="M202.4 43.2984C200.789 43.2984 200.789 41.2145 200.789 41.2145C200.559 30.5636 200.789 7.6409 200.789 5.09393C200.789 1.85234 200.559 0 197.106 0H195.034H194.804C191.581 0 191.811 4.63085 194.113 4.86239C194.574 4.86239 195.725 4.86239 195.725 6.0201C195.725 6.48319 196.185 35.6575 196.185 35.6575C196.185 35.6575 196.185 40.7514 195.955 40.983C195.264 43.0669 195.494 43.0669 193.423 43.2984C191.351 43.7615 190.661 48.6239 193.883 48.8554C195.725 49.087 198.487 48.8554 202.63 48.8554C206.543 48.8554 205.623 43.0669 202.4 43.2984Z" fill="white"/>
<path d="M128.53 14.584H128.302C116.243 14.584 111.692 22.496 111.465 32.4425C111.237 42.3891 117.153 48.7187 125.117 48.9447C131.943 49.1708 135.811 46.6841 137.631 43.2933C139.452 39.9024 135.129 38.094 133.763 40.8066C132.398 43.5193 128.985 44.6496 126.027 44.4236C120.111 44.6496 117.153 38.9982 117.153 35.1552C117.153 34.0249 116.926 33.3468 118.291 33.3468C121.704 33.1207 132.626 33.5728 134.218 33.5728C136.266 33.5728 138.314 33.1207 138.542 30.8601C138.087 28.8256 138.997 15.0361 128.53 14.584Z" fill="white"/>
<path d="M245.842 33.1053C249.315 32.8724 260.43 33.3382 262.05 33.3382C264.134 33.3382 266.218 32.8724 266.45 30.5433C266.45 28.2142 267.608 14.0068 256.956 13.541H256.725C244.452 13.541 239.821 21.6928 239.59 31.9407C239.358 42.1887 245.379 48.7101 253.483 48.943C260.43 49.1759 264.366 46.6139 266.218 43.1203C268.071 39.6267 263.671 37.7634 262.282 40.5583C260.893 43.3532 257.419 44.5177 254.409 44.2848C248.389 44.5177 245.379 38.695 245.379 34.7356C244.684 34.0369 244.452 33.3382 245.842 33.1053Z" fill="white"/>
<path d="M179.814 24.4752C185.853 22.628 186.085 16.3937 185.389 12.6994C184.924 9.46681 183.763 0.230898 164.253 0H162.859H162.627C159.375 0 160.072 4.61796 162.395 4.84885C163.091 4.84885 163.556 4.84885 163.788 5.54155L164.02 42.7161C163.788 43.6397 163.324 43.8706 162.859 44.1015C160.769 44.3324 159.84 49.1812 163.091 48.9503H164.253C172.846 48.9503 186.55 48.7194 187.479 39.7144C187.711 34.8656 186.085 25.8606 179.814 24.4752Z" fill="white"/>
<path d="M67.2609 14.9531C67.0288 14.9531 65.404 14.9531 63.3151 14.9531C63.3151 12.8703 63.3151 11.2503 63.3151 10.5561C63.3151 6.39048 62.3867 5.00195 60.2978 5.23337C58.2089 5.23337 57.7447 5.92764 57.7447 9.86181V14.9531C55.4236 14.9531 53.3347 14.9531 52.6384 15.1845C50.7816 15.4159 50.0853 20.2758 53.1026 20.7386C53.7989 20.7386 55.6557 20.9701 57.9768 20.9701L58.2089 36.7068C58.2089 36.7068 58.2089 41.5666 57.9768 41.5666C57.9768 43.6494 57.9768 44.1122 55.4236 44.3437C53.1026 44.5751 52.4063 49.435 55.8879 49.8978C57.7447 50.1292 60.5299 49.8978 64.7077 49.8978C68.6535 49.8978 67.7251 44.1122 64.4756 44.3437C63.7793 44.3437 62.8509 44.5751 62.8509 43.418C62.8509 37.1696 62.8509 28.1441 63.083 21.2015C64.7077 21.2015 66.3324 20.9701 67.2609 20.9701C70.9745 20.5072 70.2782 14.7217 67.2609 14.9531Z" fill="white"/>
<path d="M87.1232 14.9531C86.8901 14.9531 85.2583 14.9531 83.1603 14.9531C83.1603 12.8703 83.1603 11.2503 83.1603 10.5561C83.1603 6.39048 82.2278 5.00195 80.1298 5.23337C78.0318 5.23337 77.5655 5.92764 77.5655 9.86181V14.9531C75.2344 14.9531 73.1364 15.1845 72.437 15.1845C70.5721 15.1845 69.8728 20.2758 72.9032 20.7386C73.6026 20.7386 75.2344 20.9701 77.7987 20.7386L78.0318 36.7068C78.0318 36.7068 78.0318 39.4838 78.0318 39.7152C78.2649 42.7237 78.498 43.8808 75.2344 44.3437C72.6701 44.5751 72.2039 49.435 75.7006 49.8978C77.5655 50.1292 80.3629 49.8978 84.559 49.8978C88.5219 49.8978 87.5895 44.1122 84.3259 44.3437C83.6265 44.3437 82.6941 44.5751 82.6941 43.418C82.6941 37.1696 82.6941 28.1441 82.9272 21.2015C84.559 21.2015 86.1908 20.9701 87.1232 20.9701C90.8531 20.5072 89.9206 14.7217 87.1232 14.9531Z" fill="white"/>
</svg>
