<svg width="280" height="50" viewBox="0 0 280 50" fill="none" xmlns="http://www.w3.org/2000/svg">
<path d="M0 38.2627C3.06439 37.891 3.91083 37.0477 3.91083 33.2346V6.5616C3.91083 3.38786 3.06439 2.32692 0 1.95514V1.58789H14.3714C24.0941 1.58789 27.842 4.81604 27.842 10.5333C27.842 16.3549 22.2926 19.6374 16.0054 19.6374V19.9004C20.6043 19.846 24.3521 21.859 26.0948 26.0937L29.0551 33.0805C30.4266 36.363 32.0652 37.9499 34.3917 38.2129V38.6345H25.4113C24.5649 37.2607 23.5102 34.826 22.7181 32.9717L19.8121 25.935C17.8567 21.4374 16.6437 20.2722 12.6785 20.2722H9.77254V33.2392C9.77254 36.7303 10.6688 37.8955 13.7332 38.2673V38.6391H0V38.2627ZM12.3617 19.3699C18.8616 19.3699 21.3964 16.3549 21.3964 10.6376C21.3964 5.87698 19.9163 2.59442 13.2081 2.59442H9.77254V19.3699H12.3617Z" fill="white"/>
<path d="M61.0663 33.8688C60.2199 37.3599 58.1603 39.4274 54.9375 39.4274C52.19 39.4274 50.66 37.6274 50.5016 34.8753L50.4473 34.0819C49.8679 36.571 47.0661 39.4274 42.7841 39.4274C38.0811 39.4274 35.6006 36.5166 35.6006 33.0255C35.6006 28.4734 38.8416 25.1864 44.7576 23.9667L50.393 22.8514V22.0172C50.393 17.0434 48.5417 14.3956 44.0515 14.3956C40.3534 14.3956 37.6602 16.513 36.7594 20.6932L36.3882 20.6388C37.0763 14.9216 40.8785 11.3262 46.4776 11.3262C52.6607 11.3262 55.6165 15.1347 55.6165 21.591V33.7645C55.6165 35.6688 56.4086 36.834 57.676 36.834C58.8891 36.834 60.0026 35.9861 60.6363 33.8189L61.0663 33.8688ZM50.393 33.2885V23.8035L46.4278 24.5244C40.9871 25.6352 40.7789 29.2125 40.7789 31.4885C40.7789 34.2406 42.1006 36.8884 45.3234 36.8884C47.6998 36.8884 49.3927 35.8819 50.393 33.2885Z" fill="white"/>
<path d="M89.6188 38.2622V38.6339H77.2571V38.2622C79.8462 37.9448 80.6383 37.4687 80.6383 35.4557V20.4801C80.6383 16.0868 79.0541 13.7065 75.5144 13.7065C72.45 13.7065 70.7074 15.7195 69.9153 17.8323V35.4557C69.9153 37.4687 70.7074 37.9448 73.2965 38.2622V38.6339H60.9846V38.2622C63.6778 37.8904 64.6827 37.3644 64.6827 35.297V17.6782C64.6827 14.5543 63.9449 14.0783 60.9846 14.2914V13.9196L69.9153 11.5393V17.1477C70.8115 13.9196 73.9302 11.3262 78.1579 11.3262C83.4402 11.3262 85.9252 14.713 85.9252 19.8454V35.297C85.9207 37.3644 86.9255 37.8904 89.6188 38.2622Z" fill="white"/>
<path d="M88.2244 38.2617C90.9176 37.8899 91.9225 37.364 91.9225 35.2965V6.13892C91.9225 3.17374 91.1303 2.64781 88.2244 2.85637V2.43471L97.1505 0V35.4552C97.1505 37.4683 98.0467 37.9443 100.849 38.2617V38.6335H88.2198V38.2617H88.2244ZM97.4175 24.6101L105.873 17.782C108.091 16.0365 108.516 15.1886 108.516 14.2909C108.516 13.3388 107.724 12.5952 105.556 12.4909V12.1192H115.279V12.4909C112.794 13.23 110.259 15.1886 108.887 16.3538L102.071 22.0711L111.843 34.3489C114.116 37.0466 115.383 38.0532 117.126 38.3161V38.6335H108.62L97.4175 24.6101Z" fill="white"/>
<path d="M165.468 33.5013C164.518 37.3642 161.77 39.5359 158.601 39.5359C155.75 39.5359 154.215 38.1077 152.052 35.4599L149.408 32.2318C147.453 36.675 143.542 39.5359 138.681 39.5359C132.973 39.5359 128.433 35.41 128.433 29.5885C128.433 24.1387 131.601 20.0083 137.68 17.9454L137.205 17.3651C134.458 13.9782 132.873 11.4392 132.873 8.31536C132.873 4.03081 136.359 0.535156 142.596 0.535156C146.032 0.535156 149.146 1.43287 151.26 2.81118L149.888 11.3848H149.517C149.359 5.72196 147.245 1.43741 142.175 1.43741C138.477 1.43741 136.943 3.60915 136.943 5.67208C136.943 8.16121 138.052 9.74808 140.903 13.1848L156.963 32.7668C158.864 35.0972 160.344 35.9949 162.087 35.9949C163.3 35.9949 164.413 35.4645 165.151 33.4015L165.468 33.5013ZM148.983 31.7013L138.047 18.3625C133.928 20.0582 133.131 23.2319 133.131 26.1427C133.131 31.8056 136.617 36.5163 142.324 36.5163C144.755 36.5163 147.399 35.2967 148.983 31.7013Z" fill="white"/>
<path d="M174.557 36.7786L175.561 25.9833H175.933C176.883 33.496 181.057 38.2612 187.819 38.2612C192.468 38.2612 195.374 35.7222 195.374 31.2744C195.374 27.942 193.631 26.0876 189.403 24.2876L183.22 21.4812C177.884 19.1507 175.082 15.977 175.082 10.9489C175.082 4.96863 179.518 0.525391 187.76 0.525391C191.037 0.525391 195.052 1.26442 198.538 3.11879L197.429 13.3836H197.057C196.053 5.65778 192.355 1.95357 186.176 1.95357C181.473 1.95357 178.676 4.28401 178.676 7.98822C178.676 11.2708 180.418 12.8032 185.017 14.9206L191.78 17.99C197.062 20.3703 199.389 23.3899 199.389 28.1505C199.389 35.1373 194.369 39.6894 186.393 39.6894C182.003 39.6894 177.884 38.5786 174.557 36.7786Z" fill="white"/>
<path d="M216.897 33.3416C215.734 37.1501 213.303 39.4261 209.659 39.4261C205.961 39.4261 204.006 37.0957 204.006 33.2328V12.9661H200.362V12.5944C204.535 11.4291 207.337 8.83574 208.976 4.125H209.238V12.1682H215.209V12.9616H209.238V32.3305C209.238 34.9783 210.243 36.7737 212.357 36.7737C214.525 36.7737 215.684 35.5587 216.53 33.2282L216.897 33.3416Z" fill="white"/>
<path d="M216.707 49.0077L217.603 43.8753H217.865C218.87 44.773 220.771 45.3579 222.618 45.3579C225.841 45.3579 228.326 44.4058 229.96 40.9147L230.381 39.9626L221.459 17.4109C220.296 14.3414 218.974 12.7545 217.073 12.5414V12.1198H229.806V12.5414C227.321 12.7545 226.479 13.4391 226.479 14.9217C226.479 15.7152 226.742 16.6174 227.113 17.6194L232.766 33.1254L238.895 18.0411C239.266 17.0889 239.474 16.1867 239.474 15.4477C239.474 13.7021 238.311 12.75 236.306 12.5369V12.1152H244.39V12.5369C242.38 13.1172 241.539 14.1782 240.321 17.5106L231.128 40.688C228.326 48.5226 224.628 50.0006 220.93 50.0006C219.454 50.0097 218.024 49.7467 216.707 49.0077Z" fill="white"/>
<path d="M256.839 38.2617V38.6335H244.21V38.2617C246.903 37.8899 247.908 37.364 247.908 35.2965V6.13892C247.908 3.17374 247.116 2.64781 244.21 2.85637V2.43471L253.141 0V35.2965C253.141 37.364 254.146 37.8899 256.839 38.2617Z" fill="white"/>
<path d="M280 29.2669C278.787 36.3035 274.768 39.4274 269.752 39.4274C263.465 39.4274 258.391 34.7167 258.391 25.8256C258.391 17.4107 262.619 11.3262 270.015 11.3262C275.827 11.3262 279.896 15.5609 279.683 22.7562H262.302C262.46 30.4276 266.262 34.9796 271.916 34.9796C275.035 34.9796 277.99 34.0819 279.629 29.2125L280 29.2669ZM262.302 21.7496H274.401C274.614 15.1891 272.074 12.4869 268.851 12.4869C265.049 12.4914 262.46 16.0868 262.302 21.7496Z" fill="white"/>
</svg>
