<svg width="1067" height="206" viewBox="0 0 1067 206" fill="none" xmlns="http://www.w3.org/2000/svg">
<path d="M361.071 191H332.995C332.181 191 331.774 190.593 331.774 189.779L332.263 18.0263C332.263 17.3753 332.588 17.0498 333.239 17.0498H381.335C396.634 17.0498 408.719 21.7291 417.59 31.0878C426.542 40.3652 431.018 53.0198 431.018 69.0517C431.018 80.7705 428.698 90.9837 424.06 99.6914C419.34 108.318 413.236 114.991 405.749 119.711C398.262 124.431 390.124 126.791 381.335 126.791H362.292V189.779C362.292 190.593 361.885 191 361.071 191ZM381.335 46.7128L362.292 46.957V96.5175H381.335C386.625 96.5175 391.223 93.9947 395.129 88.9492C399.035 83.8222 400.988 77.1897 400.988 69.0517C400.988 62.5413 399.239 57.2109 395.739 53.0605C392.24 48.8287 387.438 46.7128 381.335 46.7128Z" fill="white"/>
<path d="M265.368 193.441C256.498 193.441 248.319 191.163 240.832 186.605C233.426 182.048 227.486 175.985 223.01 168.417C218.615 160.767 216.418 152.385 216.418 143.27V131.796C216.418 130.901 216.825 130.453 217.639 130.453H245.715C246.366 130.453 246.691 130.901 246.691 131.796V143.27C246.691 148.723 248.522 153.443 252.185 157.431C255.847 161.337 260.241 163.29 265.368 163.29C270.576 163.29 275.012 161.296 278.674 157.309C282.336 153.24 284.167 148.56 284.167 143.27C284.167 137.167 280.179 131.837 272.204 127.279C270.902 126.465 269.193 125.489 267.077 124.35C265.043 123.129 262.601 121.745 259.753 120.199C256.905 118.653 254.138 117.147 251.452 115.683C248.767 114.136 246.162 112.672 243.64 111.288C234.525 105.917 227.73 99.2031 223.254 91.1464C218.859 83.0084 216.662 73.8938 216.662 63.8027C216.662 54.5253 218.941 46.1432 223.498 38.6562C228.055 31.2506 233.996 25.3912 241.32 21.0781C248.726 16.6835 256.742 14.4863 265.368 14.4863C274.239 14.4863 282.377 16.6835 289.782 21.0781C297.188 25.554 303.088 31.4947 307.482 38.9003C311.958 46.3059 314.196 54.6067 314.196 63.8027V84.3105C314.196 84.9615 313.871 85.2871 313.22 85.2871H285.144C284.493 85.2871 284.167 84.9615 284.167 84.3105L283.923 63.8027C283.923 57.9433 282.092 53.1826 278.43 49.5205C274.768 45.8584 270.414 44.0273 265.368 44.0273C260.241 44.0273 255.847 45.9804 252.185 49.8867C248.522 53.7929 246.691 58.4316 246.691 63.8027C246.691 69.2552 247.831 73.8125 250.109 77.4746C252.469 81.1367 256.742 84.636 262.927 87.9726C263.578 88.2981 265.083 89.1119 267.443 90.414C269.803 91.7161 272.408 93.1809 275.256 94.8085C278.186 96.3548 280.83 97.7789 283.19 99.081C285.55 100.302 286.975 101.034 287.463 101.278C295.764 105.917 302.315 111.614 307.116 118.368C311.999 125.123 314.44 133.423 314.44 143.27C314.44 152.792 312.243 161.337 307.849 168.905C303.373 176.474 297.432 182.455 290.026 186.85C282.621 191.244 274.401 193.441 265.368 193.441Z" fill="white"/>
<path d="M1066.96 158C1066.96 160.833 1065.96 163.333 1063.96 165.5C1062.13 167.5 1059.71 169.25 1056.71 170.75C1053.88 172.083 1050.71 173.167 1047.21 174C1043.71 174.833 1040.38 175.5 1037.21 176C1034.05 176.333 1031.21 176.583 1028.71 176.75C1026.38 176.75 1024.88 176.75 1024.21 176.75C1020.55 176.75 1017.71 176.167 1015.71 175C1013.71 173.833 1012.71 171.75 1012.71 168.75C1012.71 167.75 1012.8 166.917 1012.96 166.25C1013.13 165.417 1013.8 165 1014.96 165C1015.46 165 1016.3 165.167 1017.46 165.5C1018.63 165.667 1019.55 165.75 1020.21 165.75C1020.88 165.75 1022.96 165.667 1026.46 165.5C1030.13 165.167 1033.96 164.667 1037.96 164C1042.13 163.333 1045.8 162.417 1048.96 161.25C1052.3 159.917 1053.96 158.25 1053.96 156.25C1053.96 155.917 1052.21 154.917 1048.71 153.25C1045.38 151.417 1040.3 148.417 1033.46 144.25C1028.13 140.917 1024.38 137.583 1022.21 134.25C1020.05 130.75 1018.96 126.083 1018.96 120.25C1018.96 116.583 1019.71 113.583 1021.21 111.25C1022.88 108.917 1025.05 107.083 1027.71 105.75C1030.55 104.417 1033.71 103.5 1037.21 103C1040.88 102.333 1044.71 102 1048.71 102C1049.05 102 1050.05 102.167 1051.71 102.5C1053.55 102.833 1055.46 103.417 1057.46 104.25C1059.46 104.917 1061.21 105.833 1062.71 107C1064.38 108 1065.21 109.167 1065.21 110.5C1065.21 110.833 1064.88 111.333 1064.21 112C1063.71 112.667 1062.8 113.917 1061.46 115.75C1060.96 115.583 1060.05 115.333 1058.71 115C1057.55 114.667 1056.13 114.333 1054.46 114C1052.96 113.5 1051.38 113.167 1049.71 113C1048.05 112.667 1046.71 112.5 1045.71 112.5C1041.38 112.5 1037.88 113.333 1035.21 115C1032.55 116.5 1031.21 119.5 1031.21 124C1031.21 126.167 1032.05 128.167 1033.71 130C1035.55 131.833 1037.8 133.583 1040.46 135.25C1043.13 136.75 1045.96 138.333 1048.96 140C1052.13 141.5 1055.05 143.167 1057.71 145C1060.38 146.833 1062.55 148.833 1064.21 151C1066.05 153 1066.96 155.333 1066.96 158Z" fill="#4272EA"/>
<path d="M997.822 160.25C997.822 161.25 997.489 162.25 996.822 163.25C996.156 164.25 995.322 165.167 994.322 166C993.489 166.833 992.489 167.583 991.322 168.25C990.322 168.75 989.406 169 988.572 169C985.739 169 982.072 168.417 977.572 167.25C973.239 165.917 969.739 163.917 967.072 161.25C964.239 158.417 961.739 155.083 959.572 151.25C957.406 147.25 954.989 141.417 952.322 133.75C950.489 141.083 948.322 148.333 945.822 155.5C943.489 162.667 939.656 169.25 934.322 175.25C933.989 175.583 933.489 175.75 932.822 175.75C931.656 175.75 930.406 175.167 929.072 174C927.739 172.833 927.072 171.667 927.072 170.5C927.072 169.333 926.906 166.667 926.572 162.5C926.406 158.167 926.156 153.417 925.822 148.25C925.489 142.917 925.156 137.583 924.822 132.25C924.656 126.75 924.572 122.25 924.572 118.75C924.572 117.083 924.656 114.917 924.822 112.25C924.989 109.417 925.489 107 926.322 105C926.489 104.667 927.072 104 928.072 103C929.239 102 930.489 101.5 931.822 101.5C932.989 101.5 933.656 102.25 933.822 103.75C933.989 105.25 934.072 106.917 934.072 108.75V148.25C934.072 149.083 934.156 150.25 934.322 151.75C934.656 153.25 935.072 154.333 935.572 155C937.406 151 939.072 146.333 940.572 141C942.239 135.5 943.822 130.333 945.322 125.5C946.822 120.5 948.322 116.333 949.822 113C951.322 109.5 952.822 107.75 954.322 107.75C955.989 107.75 957.322 108.083 958.322 108.75C959.322 109.417 960.156 110.75 960.822 112.75C961.656 117.583 962.322 121.917 962.822 125.75C963.322 129.417 963.906 132.75 964.572 135.75C965.406 138.75 966.489 141.583 967.822 144.25C969.322 146.75 971.322 149.083 973.822 151.25C976.156 153.417 978.739 155 981.572 156C984.572 157 987.156 157.5 989.322 157.5C990.322 157.5 991.406 157.333 992.572 157C993.739 156.5 994.572 156.25 995.072 156.25C995.739 156.25 996.322 156.833 996.822 158C997.489 159.167 997.822 159.917 997.822 160.25Z" fill="#4272EA"/>
<path d="M897.504 137C897.504 140.667 897.004 144.167 896.004 147.5C895.004 150.833 893.671 153.75 892.004 156.25C890.337 158.75 888.337 160.75 886.004 162.25C883.837 163.583 881.421 164.25 878.754 164.25C874.087 164.25 870.421 162.917 867.754 160.25C865.087 157.583 863.004 154.5 861.504 151C860.171 147.5 859.254 144 858.754 140.5C858.421 136.833 858.254 134.083 858.254 132.25C858.254 129.25 858.671 125.917 859.504 122.25C860.504 118.417 861.754 114.917 863.254 111.75C864.921 108.583 866.754 105.917 868.754 103.75C870.754 101.583 872.837 100.5 875.004 100.5C875.504 100.5 876.254 100.667 877.254 101C878.421 101.333 879.587 101.833 880.754 102.5C881.921 103.167 882.921 104 883.754 105C884.754 106 885.421 107.167 885.754 108.5C887.587 108.667 889.421 109.333 891.254 110.5C893.087 111.667 894.087 112.583 894.254 113.25C895.587 117.583 896.421 121.917 896.754 126.25C897.254 130.583 897.504 134.167 897.504 137ZM886.254 132.5C886.254 130 886.004 127.417 885.504 124.75C885.004 121.917 884.004 119.083 882.504 116.25C882.171 116.417 881.754 116.5 881.254 116.5C880.587 116.5 880.004 116.417 879.504 116.25C879.171 116.083 878.837 116 878.504 116C876.504 116 874.921 116.583 873.754 117.75C872.587 118.75 871.671 120.167 871.004 122C870.504 123.667 870.171 125.5 870.004 127.5C869.837 129.5 869.754 131.417 869.754 133.25C869.754 135.083 869.837 137.167 870.004 139.5C870.171 141.667 870.504 143.75 871.004 145.75C871.671 147.75 872.504 149.5 873.504 151C874.504 152.333 875.837 153 877.504 153C879.171 153 880.587 152.167 881.754 150.5C882.921 148.667 883.837 146.583 884.504 144.25C885.171 141.917 885.587 139.667 885.754 137.5C886.087 135.167 886.254 133.5 886.254 132.5Z" fill="#4272EA"/>
<path d="M828.686 76C828.686 76.3333 828.102 77 826.936 78C825.769 79 824.352 80.0833 822.686 81.25C821.186 82.25 819.602 83.1666 817.936 84C816.269 84.8333 814.936 85.25 813.936 85.25C813.269 85.25 812.352 85.25 811.186 85.25C810.186 85.0833 809.102 84.75 807.936 84.25C806.936 83.75 806.019 83.0833 805.186 82.25C804.352 81.25 803.936 80 803.936 78.5C803.936 76.1666 804.769 74 806.436 72C808.102 69.8333 810.269 68.75 812.936 68.75C813.436 68.75 814.519 69 816.186 69.5C818.019 69.8333 819.852 70.3333 821.686 71C823.519 71.6666 825.102 72.4166 826.436 73.25C827.936 74.0833 828.686 75 828.686 76ZM836.936 169.5C836.936 170.667 836.019 171.667 834.186 172.5C832.519 173.333 831.269 173.75 830.436 173.75C828.769 173.75 827.269 172.667 825.936 170.5C824.602 168.333 823.436 165.833 822.436 163C821.436 160.167 820.602 157.5 819.936 155C819.269 152.333 818.769 150.5 818.436 149.5C817.936 147.833 817.269 145.833 816.436 143.5C815.602 141.167 814.769 138.917 813.936 136.75C813.269 134.583 812.686 132.667 812.186 131C811.686 129.333 811.436 128.417 811.436 128.25C811.436 125.917 811.852 123.75 812.686 121.75C813.686 119.75 814.852 118.75 816.186 118.75C817.686 118.75 819.269 119.917 820.936 122.25C822.602 124.583 824.186 127.583 825.686 131.25C827.352 134.75 828.852 138.667 830.186 143C831.519 147.167 832.686 151.167 833.686 155C834.686 158.667 835.436 161.917 835.936 164.75C836.602 167.417 836.936 169 836.936 169.5Z" fill="#4272EA"/>
<path d="M800.352 78C798.185 80.5 795.102 83 791.102 85.5C787.102 87.8333 783.102 90 779.102 92C775.102 94 771.602 95.75 768.602 97.25C765.602 98.5833 764.102 99.5 764.102 100C764.102 100.5 764.435 102 765.102 104.5C765.768 107 766.518 110 767.352 113.5C768.352 116.833 769.352 120.333 770.352 124C771.352 127.667 772.185 130.917 772.852 133.75C773.185 135.417 773.602 137.583 774.102 140.25C774.602 142.917 775.018 145.583 775.352 148.25C775.852 150.917 776.268 153.333 776.602 155.5C776.935 157.5 777.102 158.583 777.102 158.75C777.102 161.25 776.685 163.833 775.852 166.5C775.018 169.167 773.685 170.5 771.852 170.5C770.852 170.5 769.935 170.083 769.102 169.25C768.268 168.417 767.518 167.5 766.852 166.5C766.185 165.333 765.685 164.25 765.352 163.25C765.018 162.25 764.852 161.5 764.852 161C764.852 160.667 764.852 160.167 764.852 159.5C765.018 158.833 765.102 158.083 765.102 157.25C765.102 154.083 764.602 149.5 763.602 143.5C763.268 141.667 762.602 138.833 761.602 135C760.602 131.167 759.602 127.25 758.602 123.25C757.435 118.583 756.102 113.5 754.602 108C753.935 105.667 753.518 104.5 753.352 104.5C752.185 104.5 750.185 105.25 747.352 106.75C744.685 108.083 741.602 109.833 738.102 112C734.602 114 730.935 116.25 727.102 118.75C723.268 121.083 719.685 123.333 716.352 125.5C713.018 127.5 710.185 129.25 707.852 130.75C705.352 132.083 703.852 132.75 703.352 132.75C701.185 132.75 699.435 132 698.102 130.5C696.768 129 696.102 127.333 696.102 125.5C696.102 124.5 697.518 123.083 700.352 121.25C703.018 119.25 706.435 117.083 710.602 114.75C714.602 112.417 719.018 110 723.852 107.5C728.518 105 732.852 102.75 736.852 100.75C741.018 98.75 744.435 97.0833 747.102 95.75C749.935 94.4166 751.352 93.75 751.352 93.75C749.852 86.0833 748.602 79.2499 747.602 73.25C746.768 68.0833 745.935 63.3333 745.102 59C744.435 54.6666 744.102 52.3333 744.102 51.9999C744.102 49.8333 744.518 48.25 745.352 47.2499C746.352 46.0833 747.435 45.5 748.602 45.5C750.435 45.5 751.602 46.75 752.102 49.25C753.935 58.25 755.602 66.25 757.102 73.25C758.768 80.2499 760.352 85.9166 761.852 90.25C763.352 89.9166 765.935 89 769.602 87.5C773.268 85.8333 777.102 84.0833 781.102 82.25C785.102 80.4166 788.685 78.8333 791.852 77.5C795.185 75.9999 797.102 75.25 797.602 75.25C798.602 75.25 799.185 75.5833 799.352 76.25C799.685 76.9166 800.018 77.5 800.352 78Z" fill="#4272EA"/>
<path d="M724.066 149.5C724.066 151 723.066 152.583 721.066 154.25C719.066 155.917 716.733 157.5 714.066 159C711.4 160.333 708.65 161.5 705.816 162.5C703.15 163.5 701.15 164 699.816 164C698.316 164 696.65 163.583 694.816 162.75C693.15 161.917 691.483 160.917 689.816 159.75C688.316 158.583 686.983 157.5 685.816 156.5C684.65 155.5 683.9 154.833 683.566 154.5C683.066 155 682.316 156 681.316 157.5C680.316 159 679.066 160.667 677.566 162.5C676.233 164.167 674.733 165.667 673.066 167C671.566 168.333 669.983 169 668.316 169C663.983 169 660.233 166.667 657.066 162C653.9 157.333 651.233 152 649.066 146C647.066 140 645.483 134.25 644.316 128.75C643.316 123.083 642.816 119.25 642.816 117.25C642.816 116.083 643.4 115.167 644.566 114.5C645.9 113.667 646.9 113.25 647.566 113.25C649.9 113.25 651.483 114.083 652.316 115.75C653.15 117.25 653.566 118.917 653.566 120.75C653.566 122.25 653.983 124.917 654.816 128.75C655.816 132.583 656.983 136.5 658.316 140.5C659.65 144.5 661.066 148.083 662.566 151.25C664.066 154.25 665.4 155.75 666.566 155.75C668.733 155.75 670.566 154.417 672.066 151.75C673.733 148.917 675.066 145.75 676.066 142.25C677.066 138.583 677.816 135.167 678.316 132C678.816 128.667 679.066 126.5 679.066 125.5C679.066 125.333 679.066 124.833 679.066 124C679.233 123 679.4 122 679.566 121C679.733 120 679.816 119.083 679.816 118.25C679.983 117.417 680.066 116.833 680.066 116.5C680.066 115.333 679.816 114.583 679.316 114.25C678.816 113.75 678.566 112.833 678.566 111.5C678.566 110.5 679.066 109.583 680.066 108.75C681.066 107.75 683.233 107.25 686.566 107.25C687.9 107.25 688.9 107.667 689.566 108.5C690.4 109.167 690.983 110 691.316 111C691.65 112 691.816 113 691.816 114C691.983 114.833 692.066 115.417 692.066 115.75C692.066 115.917 691.983 117.083 691.816 119.25C691.65 121.417 691.483 123.833 691.316 126.5C691.316 129 691.233 131.417 691.066 133.75C690.9 136.083 690.816 137.5 690.816 138C690.816 138.5 691.066 139.5 691.566 141C692.066 142.5 692.65 144.083 693.316 145.75C694.15 147.25 695.066 148.667 696.066 150C697.066 151.167 698.15 151.75 699.316 151.75C701.316 151.75 703.15 151.5 704.816 151C706.65 150.333 708.316 149.667 709.816 149C711.483 148.167 712.983 147.5 714.316 147C715.65 146.333 716.9 146 718.066 146C719.566 146 720.9 146.333 722.066 147C723.4 147.667 724.066 148.5 724.066 149.5Z" fill="#4272EA"/>
<path d="M622.332 183.75C622.332 185.083 621.832 186.083 620.832 186.75C619.832 187.417 618.665 187.75 617.332 187.75C615.832 187.75 614.249 186.333 612.582 183.5C611.082 180.667 609.582 177.083 608.082 172.75C606.582 168.417 605.165 163.75 603.832 158.75C602.499 153.583 601.332 148.833 600.332 144.5C599.332 140 598.499 136.25 597.832 133.25C597.332 130.25 597.082 128.583 597.082 128.25C597.082 127.583 596.749 125.833 596.082 123C595.582 120.167 594.832 115.75 593.832 109.75C592.999 103.75 591.999 95.9999 590.832 86.5C589.832 76.8333 588.749 64.9166 587.582 50.7499C587.582 49.2499 587.832 47.3333 588.332 44.9999C588.832 42.6666 589.999 41.4999 591.832 41.4999C594.165 41.4999 595.915 43.0833 597.082 46.2499C598.415 49.4166 599.415 53.3333 600.082 58C600.915 62.6666 601.499 67.5833 601.832 72.7499C602.165 77.7499 602.582 82.1666 603.082 85.9999C603.749 91.3333 604.332 96.1666 604.832 100.5C605.499 104.833 606.082 109.167 606.582 113.5C607.249 117.667 607.999 122.083 608.832 126.75C609.832 131.417 610.999 136.583 612.332 142.25L622.332 183.75Z" fill="#4272EA"/>
<path d="M563.764 137C563.764 140.667 563.264 144.167 562.264 147.5C561.264 150.833 559.93 153.75 558.264 156.25C556.597 158.75 554.597 160.75 552.264 162.25C550.097 163.583 547.68 164.25 545.014 164.25C540.347 164.25 536.68 162.917 534.014 160.25C531.347 157.583 529.264 154.5 527.764 151C526.43 147.5 525.514 144 525.014 140.5C524.68 136.833 524.514 134.083 524.514 132.25C524.514 129.25 524.93 125.917 525.764 122.25C526.764 118.417 528.014 114.917 529.514 111.75C531.18 108.583 533.014 105.917 535.014 103.75C537.014 101.583 539.097 100.5 541.264 100.5C541.764 100.5 542.514 100.667 543.514 101C544.68 101.333 545.847 101.833 547.014 102.5C548.18 103.167 549.18 104 550.014 105C551.014 106 551.68 107.167 552.014 108.5C553.847 108.667 555.68 109.333 557.514 110.5C559.347 111.667 560.347 112.583 560.514 113.25C561.847 117.583 562.68 121.917 563.014 126.25C563.514 130.583 563.764 134.167 563.764 137ZM552.514 132.5C552.514 130 552.264 127.417 551.764 124.75C551.264 121.917 550.264 119.083 548.764 116.25C548.43 116.417 548.014 116.5 547.514 116.5C546.847 116.5 546.264 116.417 545.764 116.25C545.43 116.083 545.097 116 544.764 116C542.764 116 541.18 116.583 540.014 117.75C538.847 118.75 537.93 120.167 537.264 122C536.764 123.667 536.43 125.5 536.264 127.5C536.097 129.5 536.014 131.417 536.014 133.25C536.014 135.083 536.097 137.167 536.264 139.5C536.43 141.667 536.764 143.75 537.264 145.75C537.93 147.75 538.764 149.5 539.764 151C540.764 152.333 542.097 153 543.764 153C545.43 153 546.847 152.167 548.014 150.5C549.18 148.667 550.097 146.583 550.764 144.25C551.43 141.917 551.847 139.667 552.014 137.5C552.347 135.167 552.514 133.5 552.514 132.5Z" fill="#4272EA"/>
<path d="M505.25 154.75C505.25 162.25 503.917 168.167 501.25 172.5C498.583 176.667 494.667 180.583 489.5 184.25C488.167 185.083 486.333 186.083 484 187.25C481.667 188.417 479.083 189.5 476.25 190.5C473.417 191.5 470.417 192.333 467.25 193C464.083 193.667 461.167 194 458.5 194C451 194 445.333 193.167 441.5 191.5C437.667 190 435.75 188.167 435.75 186C435.75 183.667 436.417 181.75 437.75 180.25C439.083 178.75 440.25 177.917 441.25 177.75L444 179.75C444.833 180.583 446 181.5 447.5 182.5C449 183.333 451.417 183.75 454.75 183.75C457.917 183.75 461.75 183.25 466.25 182.25C470.75 181.083 475 179.417 479 177.25C483.167 174.917 486.667 172.083 489.5 168.75C492.5 165.417 494 161.583 494 157.25C494 153.417 491.083 149.917 485.25 146.75C479.583 143.417 470.583 141.167 458.25 140C451.917 139.5 445.667 138.75 439.5 137.75C433.333 136.583 427.75 135.083 422.75 133.25C417.917 131.25 414 128.833 411 126C408 123 406.5 119.333 406.5 115C406.5 110.833 407.667 106.833 410 103C412.333 99.1666 415.167 95.6666 418.5 92.4999C422 89.1666 425.583 86.2499 429.25 83.7499C432.917 81.2499 436 79.1666 438.5 77.4999C440.5 76.3333 443.25 74.8333 446.75 72.9999C450.417 70.9999 454.25 69.1666 458.25 67.4999C462.417 65.6666 466.5 64.1666 470.5 62.9999C474.667 61.6666 478.167 60.9999 481 60.9999C484.333 60.9999 486.583 61.9166 487.75 63.75C488.917 65.5833 489.5 68.1666 489.5 71.5C489.5 74.3333 489.167 77.3333 488.5 80.4999C487.833 83.6666 487.083 86.7499 486.25 89.7499C485.417 92.7499 484.583 95.4166 483.75 97.7499C483.083 99.9166 482.583 101.333 482.25 102C481.583 103.5 480.833 104.5 480 105C479.167 105.5 478.583 105.75 478.25 105.75C477.583 105.75 477.25 105.333 477.25 104.5C477.25 104 477.333 103.083 477.5 101.75C477.833 100.25 478.167 98.4999 478.5 96.4999C479 94.4999 479.333 92.3333 479.5 90C479.833 87.6666 480 85.3333 480 83C480 79.3333 479.833 76.6666 479.5 74.9999C479.167 73.3333 477.833 72.4999 475.5 72.4999C473.167 72.4999 470 73.1666 466 74.4999C462 75.6666 457.917 77.1666 453.75 79C449.25 80.9999 444.833 83.5833 440.5 86.7499C436.333 89.9166 432.583 93.1666 429.25 96.4999C425.917 99.8333 423.167 103.083 421 106.25C419 109.25 418 111.667 418 113.5C418 115.5 419.333 117.417 422 119.25C424.833 120.917 428.333 122.417 432.5 123.75C436.833 125.083 441.583 126.25 446.75 127.25C451.917 128.25 457 129 462 129.5C466.167 130 470.75 130.667 475.75 131.5C480.75 132.333 485.417 133.667 489.75 135.5C494.083 137.333 497.75 139.833 500.75 143C503.75 146 505.25 149.917 505.25 154.75Z" fill="#4272EA"/>
<path d="M121.265 32.0857L62.9299 90.4259C59.7136 93.6424 54.4947 93.6424 51.2784 90.4259C48.0597 87.2093 48.0597 81.9875 51.2784 78.7709L109.611 20.4308L89.1822 4.57764e-05L57.1018 32.0857C28.1041 61.0883 28.1041 108.109 57.1018 137.114H57.1091L115.439 78.7758C118.658 75.5568 123.875 75.5568 127.091 78.7758C130.307 81.9899 130.307 87.2093 127.091 90.4259L68.7533 148.766L82.1258 162.137L80.7956 196.692C80.6135 201.447 84.4197 205.407 89.1822 205.407C93.9448 205.407 97.7509 201.447 97.5689 196.692L96.2387 162.137L121.265 137.111C150.263 108.109 150.263 61.0883 121.265 32.0857Z" fill="white"/>
<path d="M45.5137 144.581C54.6019 153.67 60.6461 164.638 63.6415 176.229C65.4766 183.333 58.993 189.819 51.8905 187.989C40.2924 185.003 29.3108 178.965 20.2202 169.876C7.56377 157.216 0.83017 140.896 0 124.335C16.5549 125.167 32.8573 131.921 45.5137 144.581Z" fill="#70A42E"/>
<path d="M132.856 144.581C123.768 153.67 117.724 164.638 114.728 176.229C112.893 183.333 119.377 189.819 126.479 187.989C138.078 185.003 149.059 178.965 158.15 169.876C170.806 157.216 177.54 140.896 178.37 124.335C161.813 125.167 145.51 131.921 132.856 144.581Z" fill="#70A42E"/>
</svg>
