<svg width="406" height="165" viewBox="0 0 406 165" fill="none" xmlns="http://www.w3.org/2000/svg">
<path d="M181.761 107.157L172.38 97.7756C169.695 95.091 168.187 91.4493 168.188 87.6511C168.189 83.853 169.698 80.2094 172.384 77.5216L191.963 57.9425C193.776 56.0981 196.241 55.0396 198.826 54.9955C201.411 54.9514 203.909 55.9251 205.781 57.7067C206.691 58.602 207.415 59.6689 207.911 60.846C208.407 62.023 208.664 63.2868 208.669 64.5643C208.673 65.8418 208.425 67.1078 207.937 68.289C207.45 69.4702 206.733 70.5433 205.829 71.4464L184.193 93.0827C182.912 94.334 181.913 95.8437 181.262 97.5112C180.612 99.1787 180.323 100.966 180.418 102.753C180.486 104.311 180.948 105.826 181.761 107.157Z" fill="#FF5F82"/>
<path d="M188.556 112.882C192.949 117.275 200.075 117.272 204.472 112.876C208.868 108.479 208.871 101.354 204.478 96.9604C200.085 92.5672 192.959 92.57 188.563 96.9667C184.166 101.363 184.163 108.489 188.556 112.882Z" fill="#FF5F82"/>
<path d="M136.142 113.763L145.535 104.37C148.223 101.685 151.866 100.176 155.664 100.175C159.462 100.174 163.104 101.682 165.789 104.367L185.352 123.93C187.196 125.741 188.253 128.205 188.294 130.789C188.336 133.374 187.358 135.872 185.573 137.744C184.677 138.655 183.609 139.38 182.432 139.877C181.255 140.373 179.991 140.632 178.713 140.637C177.436 140.643 176.17 140.395 174.989 139.908C173.808 139.422 172.736 138.706 171.833 137.803L150.214 116.184C148.964 114.905 147.454 113.908 145.788 113.258C144.121 112.608 142.334 112.322 140.547 112.416C138.99 112.489 137.475 112.952 136.142 113.763Z" fill="#FF5F82"/>
<path d="M130.404 136.478C134.798 140.871 141.923 140.868 146.32 136.471C150.716 132.075 150.719 124.949 146.326 120.556C141.933 116.163 134.807 116.166 130.411 120.562C126.014 124.959 126.011 132.085 130.404 136.478Z" fill="#FF5F82"/>
<path d="M131.24 63.8428L140.625 73.2278C143.308 75.9135 144.815 79.5559 144.812 83.354C144.81 87.1522 143.299 90.795 140.613 93.4818L121.034 113.061C117.244 116.85 111.039 117.054 107.224 113.297C106.312 112.402 105.587 111.335 105.091 110.157C104.595 108.98 104.337 107.716 104.332 106.438C104.327 105.16 104.575 103.893 105.063 102.712C105.55 101.53 106.267 100.456 107.172 99.5528L128.808 77.9166C130.088 76.6665 131.087 75.1574 131.738 73.4904C132.388 71.8234 132.675 70.037 132.579 68.2508C132.511 66.6919 132.05 65.1757 131.24 63.8428Z" fill="#FF5F82"/>
<path d="M108.522 74.0383C112.915 78.4314 120.041 78.4286 124.437 74.0319C128.834 69.6353 128.837 62.5098 124.444 58.1166C120.051 53.7235 112.925 53.7263 108.528 58.1229C104.132 62.5196 104.129 69.6451 108.522 74.0383Z" fill="#FF5F82"/>
<path d="M176.85 57.2371L167.462 66.6255C164.775 69.3122 161.132 70.8228 157.334 70.8251C153.536 70.8274 149.893 69.3212 147.207 66.6377L127.648 47.0783C125.805 45.2666 124.749 42.8025 124.707 40.2175C124.665 37.6326 125.64 35.1339 127.423 33.2604C128.319 32.3491 129.387 31.6242 130.564 31.1276C131.742 30.631 133.006 30.3725 134.283 30.367C135.561 30.3615 136.826 30.6092 138.007 31.0957C139.188 31.5822 140.261 32.2979 141.163 33.2014L162.803 54.841C164.053 56.1203 165.562 57.1181 167.229 57.7677C168.896 58.4173 170.682 58.7039 172.47 58.6083C174.021 58.5269 175.528 58.0553 176.85 57.2371Z" fill="#FF5F82"/>
<path d="M166.674 50.4426C171.067 54.8357 178.193 54.8329 182.589 50.4362C186.986 46.0396 186.989 38.9141 182.596 34.5209C178.202 30.1278 171.077 30.1306 166.68 34.5272C162.284 38.9239 162.281 46.0494 166.674 50.4426Z" fill="#FF5F82"/>
<path d="M294.177 84.2C294.177 73 296.443 63.2 300.977 54.8C305.51 46.2667 311.71 39.6667 319.577 35C327.577 30.3333 336.443 28 346.177 28C355.777 28 364.11 30.0667 371.177 34.2C378.243 38.3333 383.51 43.5333 386.977 49.8V29.8H405.377V139.4H386.977V119C383.377 125.4 377.977 130.733 370.777 135C363.71 139.133 355.443 141.2 345.977 141.2C336.243 141.2 327.443 138.8 319.577 134C311.71 129.2 305.51 122.467 300.977 113.8C296.443 105.133 294.177 95.2667 294.177 84.2ZM386.977 84.4C386.977 76.1333 385.31 68.9333 381.977 62.8C378.643 56.6667 374.11 52 368.377 48.8C362.777 45.4667 356.577 43.8 349.777 43.8C342.977 43.8 336.777 45.4 331.177 48.6C325.577 51.8 321.11 56.4667 317.777 62.6C314.443 68.7333 312.777 75.9333 312.777 84.2C312.777 92.6 314.443 99.9333 317.777 106.2C321.11 112.333 325.577 117.067 331.177 120.4C336.777 123.6 342.977 125.2 349.777 125.2C356.577 125.2 362.777 123.6 368.377 120.4C374.11 117.067 378.643 112.333 381.977 106.2C385.31 99.9333 386.977 92.6667 386.977 84.4Z" fill="white"/>
<path d="M244.567 47.6008C247.767 41.3341 252.301 36.4674 258.167 33.0008C264.167 29.5341 271.434 27.8008 279.967 27.8008V46.6008H275.167C254.767 46.6008 244.567 57.6674 244.567 79.8008V139.401H226.367V29.8008H244.567V47.6008Z" fill="white"/>
<path d="M75.6 139.4L18.2 75.8V139.4H0V0H18.2V64.6L75.8 0H98.8L35.6 69.8L99.4 139.4H75.6Z" fill="white"/>
</svg>
